<?xml version="1.0" encoding="UTF-8"?>
<svg width="700pt" height="700pt" version="1.1" viewBox="0 0 700 700" xmlns="http://www.w3.org/2000/svg" xmlns:xlink="http://www.w3.org/1999/xlink">
 <defs>
  <symbol id="j" overflow="visible">
   <path d="m18.766-1.125c-0.96875 0.5-1.9805 0.875-3.0312 1.125-1.043 0.25781-2.1367 0.39062-3.2812 0.39062-3.3984 0-6.0898-0.94531-8.0781-2.8438-1.9922-1.9062-2.9844-4.4844-2.9844-7.7344 0-3.2578 0.99219-5.8359 2.9844-7.7344 1.9883-1.9062 4.6797-2.8594 8.0781-2.8594 1.1445 0 2.2383 0.13281 3.2812 0.39062 1.0508 0.25 2.0625 0.625 3.0312 1.125v4.2188c-0.98047-0.65625-1.9453-1.1406-2.8906-1.4531-0.94922-0.3125-1.9492-0.46875-3-0.46875-1.875 0-3.3516 0.60547-4.4219 1.8125-1.0742 1.1992-1.6094 2.8555-1.6094 4.9688 0 2.1055 0.53516 3.7617 1.6094 4.9688 1.0703 1.1992 2.5469 1.7969 4.4219 1.7969 1.0508 0 2.0508-0.14844 3-0.45312 0.94531-0.3125 1.9102-0.80078 2.8906-1.4688z"/>
  </symbol>
  <symbol id="c" overflow="visible">
   <path d="m13.734-11.141c-0.4375-0.19531-0.87109-0.34375-1.2969-0.4375-0.41797-0.10156-0.83984-0.15625-1.2656-0.15625-1.2617 0-2.2305 0.40625-2.9062 1.2188-0.67969 0.80469-1.0156 1.9531-1.0156 3.4531v7.0625h-4.8906v-15.312h4.8906v2.5156c0.625-1 1.3438-1.7266 2.1562-2.1875 0.82031-0.46875 1.8008-0.70312 2.9375-0.70312 0.16406 0 0.34375 0.011719 0.53125 0.03125 0.19531 0.011719 0.47656 0.039062 0.84375 0.078125z"/>
  </symbol>
  <symbol id="a" overflow="visible">
   <path d="m17.641-7.7031v1.4062h-11.453c0.125 1.1484 0.53906 2.0078 1.25 2.5781 0.70703 0.57422 1.7031 0.85938 2.9844 0.85938 1.0312 0 2.082-0.14844 3.1562-0.45312 1.082-0.3125 2.1914-0.77344 3.3281-1.3906v3.7656c-1.1562 0.4375-2.3125 0.76562-3.4688 0.98438-1.1562 0.22656-2.3125 0.34375-3.4688 0.34375-2.7734 0-4.9297-0.70312-6.4688-2.1094-1.5312-1.4062-2.2969-3.3789-2.2969-5.9219 0-2.5 0.75391-4.4609 2.2656-5.8906 1.5078-1.4375 3.582-2.1562 6.2188-2.1562 2.4062 0 4.332 0.73047 5.7812 2.1875 1.4453 1.4492 2.1719 3.3828 2.1719 5.7969zm-5.0312-1.625c0-0.92578-0.27344-1.6719-0.8125-2.2344-0.54297-0.57031-1.25-0.85938-2.125-0.85938-0.94922 0-1.7188 0.26562-2.3125 0.79688s-0.96484 1.2969-1.1094 2.2969z"/>
  </symbol>
  <symbol id="f" overflow="visible">
   <path d="m9.2188-6.8906c-1.0234 0-1.793 0.17188-2.3125 0.51562-0.51172 0.34375-0.76562 0.85547-0.76562 1.5312 0 0.625 0.20703 1.1172 0.625 1.4688 0.41406 0.34375 0.98828 0.51562 1.7188 0.51562 0.92578 0 1.7031-0.32812 2.3281-0.98438 0.63281-0.66406 0.95312-1.4922 0.95312-2.4844v-0.5625zm7.4688-1.8438v8.7344h-4.9219v-2.2656c-0.65625 0.92969-1.3984 1.6055-2.2188 2.0312-0.82422 0.41406-1.8242 0.625-3 0.625-1.5859 0-2.8711-0.45703-3.8594-1.375-0.99219-0.92578-1.4844-2.1289-1.4844-3.6094 0-1.7891 0.61328-3.1016 1.8438-3.9375 1.2383-0.84375 3.1797-1.2656 5.8281-1.2656h2.8906v-0.39062c0-0.76953-0.30859-1.332-0.92188-1.6875-0.61719-0.36328-1.5703-0.54688-2.8594-0.54688-1.0547 0-2.0312 0.10547-2.9375 0.3125-0.89844 0.21094-1.7305 0.52344-2.5 0.9375v-3.7344c1.0391-0.25 2.0859-0.44141 3.1406-0.57812 1.0625-0.13281 2.125-0.20312 3.1875-0.20312 2.7578 0 4.75 0.54688 5.9688 1.6406 1.2266 1.0859 1.8438 2.8555 1.8438 5.3125z"/>
  </symbol>
  <symbol id="b" overflow="visible">
   <path d="m7.7031-19.656v4.3438h5.0469v3.5h-5.0469v6.5c0 0.71094 0.14062 1.1875 0.42188 1.4375s0.83594 0.375 1.6719 0.375h2.5156v3.5h-4.1875c-1.9375 0-3.3125-0.39844-4.125-1.2031-0.80469-0.8125-1.2031-2.1797-1.2031-4.1094v-6.5h-2.4219v-3.5h2.4219v-4.3438z"/>
  </symbol>
  <symbol id="m" overflow="visible">
   <path d="m12.766-13.078v-8.2031h4.9219v21.281h-4.9219v-2.2188c-0.66797 0.90625-1.4062 1.5703-2.2188 1.9844s-1.7578 0.625-2.8281 0.625c-1.8867 0-3.4336-0.75-4.6406-2.25-1.2109-1.5-1.8125-3.4258-1.8125-5.7812 0-2.3633 0.60156-4.2969 1.8125-5.7969 1.207-1.5 2.7539-2.25 4.6406-2.25 1.0625 0 2 0.21484 2.8125 0.64062 0.82031 0.42969 1.5664 1.0859 2.2344 1.9688zm-3.2188 9.9219c1.0391 0 1.8359-0.37891 2.3906-1.1406 0.55078-0.76953 0.82812-1.8828 0.82812-3.3438 0-1.457-0.27734-2.5664-0.82812-3.3281-0.55469-0.76953-1.3516-1.1562-2.3906-1.1562-1.043 0-1.8398 0.38672-2.3906 1.1562-0.55469 0.76172-0.82812 1.8711-0.82812 3.3281 0 1.4609 0.27344 2.5742 0.82812 3.3438 0.55078 0.76172 1.3477 1.1406 2.3906 1.1406z"/>
  </symbol>
  <symbol id="l" overflow="visible">
   <path d="m10.5-3.1562c1.0508 0 1.8516-0.37891 2.4062-1.1406 0.55078-0.76953 0.82812-1.8828 0.82812-3.3438 0-1.457-0.27734-2.5664-0.82812-3.3281-0.55469-0.76953-1.3555-1.1562-2.4062-1.1562-1.0547 0-1.8594 0.38672-2.4219 1.1562-0.55469 0.77344-0.82812 1.8828-0.82812 3.3281 0 1.4492 0.27344 2.5586 0.82812 3.3281 0.5625 0.77344 1.3672 1.1562 2.4219 1.1562zm-3.25-9.9219c0.67578-0.88281 1.4219-1.5391 2.2344-1.9688 0.82031-0.42578 1.7656-0.64062 2.8281-0.64062 1.8945 0 3.4453 0.75 4.6562 2.25 1.207 1.5 1.8125 3.4336 1.8125 5.7969 0 2.3555-0.60547 4.2812-1.8125 5.7812-1.2109 1.5-2.7617 2.25-4.6562 2.25-1.0625 0-2.0078-0.21094-2.8281-0.625-0.8125-0.42578-1.5586-1.0859-2.2344-1.9844v2.2188h-4.8906v-21.281h4.8906z"/>
  </symbol>
  <symbol id="k" overflow="visible">
   <path d="m0.34375-15.312h4.8906l4.125 10.391 3.5-10.391h4.8906l-6.4375 16.766c-0.64844 1.6953-1.4023 2.8828-2.2656 3.5625-0.86719 0.6875-2 1.0312-3.4062 1.0312h-2.8438v-3.2188h1.5312c0.83203 0 1.4375-0.13672 1.8125-0.40625 0.38281-0.26172 0.67969-0.73047 0.89062-1.4062l0.14062-0.42188z"/>
  </symbol>
  <symbol id="e" overflow="visible">
   <path d="m20.922-1.5156c-1.3125 0.63672-2.6797 1.1172-4.0938 1.4375-1.4062 0.3125-2.8672 0.46875-4.375 0.46875-3.3984 0-6.0898-0.94531-8.0781-2.8438-1.9922-1.9062-2.9844-4.4844-2.9844-7.7344 0-3.2891 1.0078-5.8789 3.0312-7.7656 2.0312-1.8828 4.8047-2.8281 8.3281-2.8281 1.3516 0 2.6484 0.13281 3.8906 0.39062 1.25 0.25 2.4258 0.625 3.5312 1.125v4.2188c-1.1484-0.64453-2.2812-1.125-3.4062-1.4375-1.125-0.32031-2.25-0.48438-3.375-0.48438-2.1055 0-3.7266 0.58984-4.8594 1.7656-1.125 1.168-1.6875 2.8398-1.6875 5.0156 0 2.1562 0.54688 3.8242 1.6406 5 1.0938 1.1797 2.6445 1.7656 4.6562 1.7656 0.53906 0 1.0469-0.03125 1.5156-0.09375 0.47656-0.070313 0.89844-0.17969 1.2656-0.32812v-3.9688h-3.2031v-3.5156h8.2031z"/>
  </symbol>
  <symbol id="i" overflow="visible">
   <path d="m16.547-12.766c0.61328-0.94531 1.3477-1.6719 2.2031-2.1719 0.85156-0.5 1.7891-0.75 2.8125-0.75 1.7578 0 3.0977 0.54688 4.0156 1.6406 0.92578 1.0859 1.3906 2.6562 1.3906 4.7188v9.3281h-4.9219v-7.9844-0.35938c0.007813-0.13281 0.015625-0.32031 0.015625-0.5625 0-1.082-0.16406-1.8633-0.48438-2.3438-0.3125-0.48828-0.82422-0.73438-1.5312-0.73438-0.92969 0-1.6484 0.38672-2.1562 1.1562-0.51172 0.76172-0.77344 1.8672-0.78125 3.3125v7.5156h-4.9219v-7.9844c0-1.6953-0.14844-2.7852-0.4375-3.2656-0.29297-0.48828-0.8125-0.73438-1.5625-0.73438-0.9375 0-1.6641 0.38672-2.1719 1.1562-0.51172 0.76172-0.76562 1.8594-0.76562 3.2969v7.5312h-4.9219v-15.312h4.9219v2.2344c0.60156-0.86328 1.2891-1.5156 2.0625-1.9531 0.78125-0.4375 1.6406-0.65625 2.5781-0.65625 1.0625 0 2 0.25781 2.8125 0.76562 0.8125 0.51172 1.4258 1.2305 1.8438 2.1562z"/>
  </symbol>
  <symbol id="w" overflow="visible">
   <path d="m1.5938-15.312h13.359v3.4219l-8.0625 8.3906h8.0625v3.5h-13.688v-3.4219l8.0625-8.3906h-7.7344z"/>
  </symbol>
  <symbol id="h" overflow="visible">
   <path d="m17.75-9.3281v9.3281h-4.9219v-7.1406c0-1.3203-0.03125-2.2344-0.09375-2.7344s-0.16797-0.86719-0.3125-1.1094c-0.1875-0.3125-0.44922-0.55469-0.78125-0.73438-0.32422-0.17578-0.69531-0.26562-1.1094-0.26562-1.0234 0-1.8242 0.39844-2.4062 1.1875-0.58594 0.78125-0.875 1.8711-0.875 3.2656v7.5312h-4.8906v-15.312h4.8906v2.2344c0.73828-0.88281 1.5195-1.5391 2.3438-1.9688 0.83203-0.42578 1.75-0.64062 2.75-0.64062 1.7695 0 3.1133 0.54688 4.0312 1.6406 0.91406 1.0859 1.375 2.6562 1.375 4.7188z"/>
  </symbol>
  <symbol id="g" overflow="visible">
   <path d="m14.719-14.828v3.9844c-0.65625-0.45703-1.3242-0.79688-2-1.0156-0.66797-0.21875-1.3594-0.32812-2.0781-0.32812-1.3672 0-2.4336 0.40234-3.2031 1.2031-0.76172 0.79297-1.1406 1.9062-1.1406 3.3438 0 1.4297 0.37891 2.543 1.1406 3.3438 0.76953 0.79297 1.8359 1.1875 3.2031 1.1875 0.75781 0 1.4844-0.10938 2.1719-0.32812 0.6875-0.22656 1.3203-0.56641 1.9062-1.0156v4c-0.76172 0.28125-1.5391 0.48828-2.3281 0.625-0.78125 0.14453-1.5742 0.21875-2.375 0.21875-2.7617 0-4.9219-0.70703-6.4844-2.125-1.5547-1.4141-2.3281-3.3828-2.3281-5.9062 0-2.5312 0.77344-4.5039 2.3281-5.9219 1.5625-1.4141 3.7227-2.125 6.4844-2.125 0.80078 0 1.5938 0.074219 2.375 0.21875 0.78125 0.13672 1.5547 0.35156 2.3281 0.64062z"/>
  </symbol>
  <symbol id="v" overflow="visible">
   <path d="m2.3594-21.281h4.8906v21.281h-4.8906z"/>
  </symbol>
  <symbol id="u" overflow="visible">
   <path d="m2.3594-15.312h4.8906v15.312h-4.8906zm0-5.9688h4.8906v4h-4.8906z"/>
  </symbol>
  <symbol id="t" overflow="visible">
   <path d="m2.3594-21.281h4.8906v11.594l5.625-5.625h5.6875l-7.4688 7.0312 8.0625 8.2812h-5.9375l-5.9688-6.3906v6.3906h-4.8906z"/>
  </symbol>
  <symbol id="s" overflow="visible">
   <path d="m12.422-21.281v3.2188h-2.7031c-0.6875 0-1.1719 0.125-1.4531 0.375-0.27344 0.25-0.40625 0.6875-0.40625 1.3125v1.0625h4.1875v3.5h-4.1875v11.812h-4.8906v-11.812h-2.4375v-3.5h2.4375v-1.0625c0-1.6641 0.46094-2.8984 1.3906-3.7031 0.92578-0.80078 2.3672-1.2031 4.3281-1.2031z"/>
  </symbol>
  <symbol id="d" overflow="visible">
   <path d="m9.6406-12.188c-1.0859 0-1.9141 0.39062-2.4844 1.1719-0.57422 0.78125-0.85938 1.9062-0.85938 3.375s0.28516 2.5938 0.85938 3.375c0.57031 0.77344 1.3984 1.1562 2.4844 1.1562 1.0625 0 1.875-0.38281 2.4375-1.1562 0.57031-0.78125 0.85938-1.9062 0.85938-3.375s-0.28906-2.5938-0.85938-3.375c-0.5625-0.78125-1.375-1.1719-2.4375-1.1719zm0-3.5c2.6328 0 4.6914 0.71484 6.1719 2.1406 1.4766 1.418 2.2188 3.3867 2.2188 5.9062 0 2.5117-0.74219 4.4805-2.2188 5.9062-1.4805 1.418-3.5391 2.125-6.1719 2.125-2.6484 0-4.7148-0.70703-6.2031-2.125-1.4922-1.4258-2.2344-3.3945-2.2344-5.9062 0-2.5195 0.74219-4.4883 2.2344-5.9062 1.4883-1.4258 3.5547-2.1406 6.2031-2.1406z"/>
  </symbol>
  <symbol id="r" overflow="visible">
   <path d="m17.75-9.3281v9.3281h-4.9219v-7.1094c0-1.3438-0.03125-2.2656-0.09375-2.7656s-0.16797-0.86719-0.3125-1.1094c-0.1875-0.3125-0.44922-0.55469-0.78125-0.73438-0.32422-0.17578-0.69531-0.26562-1.1094-0.26562-1.0234 0-1.8242 0.39844-2.4062 1.1875-0.58594 0.78125-0.875 1.8711-0.875 3.2656v7.5312h-4.8906v-21.281h4.8906v8.2031c0.73828-0.88281 1.5195-1.5391 2.3438-1.9688 0.83203-0.42578 1.75-0.64062 2.75-0.64062 1.7695 0 3.1133 0.54688 4.0312 1.6406 0.91406 1.0859 1.375 2.6562 1.375 4.7188z"/>
  </symbol>
  <symbol id="q" overflow="visible">
   <path d="m2.5781-20.406h5.875l7.4219 14v-14h4.9844v20.406h-5.875l-7.4219-14v14h-4.9844z"/>
  </symbol>
  <symbol id="p" overflow="visible">
   <path d="m2.1875-5.9688v-9.3438h4.9219v1.5312c0 0.83594-0.007813 1.875-0.015625 3.125-0.011719 1.25-0.015625 2.0859-0.015625 2.5 0 1.2422 0.03125 2.1328 0.09375 2.6719 0.070313 0.54297 0.17969 0.93359 0.32812 1.1719 0.20703 0.32422 0.47266 0.57422 0.79688 0.75 0.32031 0.16797 0.69141 0.25 1.1094 0.25 1.0195 0 1.8203-0.39062 2.4062-1.1719 0.58203-0.78125 0.875-1.8672 0.875-3.2656v-7.5625h4.8906v15.312h-4.8906v-2.2188c-0.74219 0.89844-1.5234 1.5586-2.3438 1.9844-0.82422 0.41406-1.7344 0.625-2.7344 0.625-1.7617 0-3.1055-0.53906-4.0312-1.625-0.92969-1.082-1.3906-2.6602-1.3906-4.7344z"/>
  </symbol>
  <symbol id="o" overflow="visible">
   <path d="m2.5781-20.406h8.7344c2.5938 0 4.582 0.57812 5.9688 1.7344 1.3945 1.1484 2.0938 2.7891 2.0938 4.9219 0 2.1367-0.69922 3.7812-2.0938 4.9375-1.3867 1.1562-3.375 1.7344-5.9688 1.7344h-3.4844v7.0781h-5.25zm5.25 3.8125v5.7031h2.9219c1.0195 0 1.8047-0.25 2.3594-0.75 0.5625-0.5 0.84375-1.2031 0.84375-2.1094 0-0.91406-0.28125-1.6172-0.84375-2.1094-0.55469-0.48828-1.3398-0.73438-2.3594-0.73438z"/>
  </symbol>
  <symbol id="n" overflow="visible">
   <path d="m2.3594-15.312h4.8906v15.031c0 2.0508-0.49609 3.6172-1.4844 4.7031-0.98047 1.082-2.4062 1.625-4.2812 1.625h-2.4219v-3.2188h0.85938c0.92578 0 1.5625-0.21094 1.9062-0.625 0.35156-0.41797 0.53125-1.2461 0.53125-2.4844zm0-5.9688h4.8906v4h-4.8906z"/>
  </symbol>
 </defs>
 <g>
  <path d="m281.68 294.56c15.68 1.6797 32.48-4.4805 42.559-16.238 14-16.238 15.121-38.078 14-58.801 11.762-4.4805 24.078-3.9219 34.719 3.9219-1.1211 31.922 6.1602 64.398 42 72.801 16.801 3.9219 33.039-0.55859 44.238-13.441 17.359-19.602 16.238-47.602 14.559-72.238 0-2.2383-7.8398-2.8008-7.8398-1.6797v0.55859c-30.238-5.0391-59.922-7.8398-90.719-7.8398-1.6797 0-8.9609 3.9219-5.0391 3.9219h3.3594c-0.55859 3.9219-1.1211 8.3984-1.1211 12.879-10.641-5.6016-23.52-7.2812-35.281-3.9219 0-2.8008-0.55859-6.1602-0.55859-8.9609 0-0.55859-0.55859-0.55859-0.55859-1.1211 2.2383-0.55859 7.2812-3.3594 3.9219-3.3594-31.359-1.1211-62.719 1.1211-94.078 5.0391-0.55859 0-1.1211 0-1.6797 0.55859-1.1211-1.6797-7.2812-2.2383-7.2812-1.1211-2.2383 33.605 0.5625 83.445 44.801 89.043zm99.121-71.68c0-0.55859 0.55859-0.55859 0-1.1211 0.55859-5.6016 1.1211-11.199 1.6797-16.801 0 0 0-0.55859-0.55859-0.55859 27.441 0.55859 54.32 3.3594 81.762 7.8398 0.55859 0 2.2383 0 3.3594-0.55859 1.1211 28.559 0.55859 67.762-31.359 80.078-30.801 11.762-50.398-16.801-54.32-40.879-1.125-9.5195-1.125-18.48-0.5625-28zm-135.52-14c28.559-3.9219 56.559-5.6016 84.559-5.0391 2.2383 28.559 3.9219 64.961-24.641 81.762-22.961 13.441-46.48 0.55859-55.441-21.281-7.2773-17.359-6.1562-36.961-4.4766-55.441zm30.238 77.84c6.1602 3.3594 14.559 4.4805 20.16 0 6.7188-5.0391 7.2812-15.121 4.4805-21.84-3.3594-8.3984-12.32-12.879-21.281-11.199-3.3594 0.55859-6.1602 2.8008-7.8398 5.6016-2.2383 1.6797-3.9219 3.9219-4.4805 7.2812-1.1172 8.3984 2.2422 16.797 8.9609 20.156zm8.9609-28.559c2.8008 0 5.6016 1.1211 5.6016 2.2383 0 1.1211-2.2383 2.2383-5.6016 2.2383-3.3594 0-5.6016-1.1211-5.6016-2.2383 0-1.1172 2.2422-2.2383 5.6016-2.2383zm129.36 28.559c6.1602 3.3594 14.559 4.4805 20.16 0 6.7188-5.0391 7.2812-15.121 4.4805-21.84-3.3594-8.3984-12.32-12.879-21.281-11.199-3.3594 0.55859-6.1602 2.8008-7.8398 5.6016-2.2383 1.6797-3.9219 3.9219-4.4805 7.2812-1.6797 8.3984 1.6797 16.797 8.9609 20.156zm8.9609-28.559c2.8008 0 5.6016 1.1211 5.6016 2.2383 0 1.1211-2.2383 2.2383-5.6016 2.2383-3.3594 0-5.6016-1.1211-5.6016-2.2383 0-1.1172 2.2422-2.2383 5.6016-2.2383zm162.96 215.6h-24.078c20.719-128.8 29.68-292.88-94.641-374.08-52.641-34.16-119.28-35.84-176.96-12.879-63.281 25.754-109.2 79.516-136.08 141.12-33.039 77.281-33.602 162.96-22.398 245.28l-17.363-0.003906c-3.9219 0-7.2812 3.3594-7.2812 7.2812s3.3594 7.2812 7.2812 7.2812h470.96c3.9219 0 7.2812-3.3594 7.2812-7.2812 0.55859-3.3594-2.8008-6.7188-6.7188-6.7188zm-445.2 0c-12.32-88.48-10.641-182 31.359-262.64 38.078-73.359 108.64-129.36 193.76-131.04 84.559-1.1211 149.52 58.801 179.2 134.4 20.16 52.078 23.52 106.96 19.602 162.4-3.9219-0.55859-9.5195 0-11.762 2.2383-14.559 12.32-31.359 20.719-50.398 22.961-17.359 2.2383-47.602-2.2383-33.039-25.762 2.2383-3.9219 6.7188-7.8398 11.199-10.641 17.359-4.4805 34.719-7.8398 48.719-11.762 8.3984-2.2383 10.641-10.078 9.5195-16.238 3.3594-1.6797 7.2812-2.8008 10.641-4.4805 10.641-3.9219 1.1211-10.078-6.7188-7.2812-2.2383 0.55859-5.6016 2.2383-9.5195 3.3594-2.8008-2.2383-6.7188-3.3594-11.762-2.2383-4.4805 1.1211-8.9609 2.2383-14 3.3594-4.4805-10.641-8.9609-21.281-13.441-31.922-1.1211-2.2383-3.3594-2.2383-5.0391-2.2383-31.918 4.4844-63.277 11.766-94.078 22.965-19.602 7.2812-38.641 16.238-50.961 33.602-35.281-20.719-70-42.559-103.6-65.52-2.2383-1.1211-5.0391-0.55859-6.1602 1.6797-10.078 17.922-22.961 33.602-38.078 47.039h-0.55859-1.6797c-12.879-5.6016-23.52-9.5195-28.559-11.199-5.0391-1.6797-19.602 5.6016-12.879 7.8398 9.5195 3.3594 18.48 7.8398 27.441 11.762-3.3594 7.2812-1.6797 16.238 8.3984 17.922 14.559 2.2383 28.559 5.6016 42.559 9.5195l1.6797 1.6797c21.84 24.078-16.238 29.68-34.16 25.762-17.359-3.9219-31.922-11.762-45.922-22.961-4.4805-3.9219-19.602 2.8008-15.121 6.7188 24.641 20.719 82.32 45.922 111.44 18.48 7.2812-7.2812 8.9609-14 6.7188-21.281 34.16 12.32 66.078 30.238 95.199 52.641 5.6016 4.4805 15.68 1.1211 19.039-5.0391 14.559-29.68 49.84-45.922 86.238-57.121-8.3984 9.5195-11.199 19.602-2.8008 29.68 11.762 14.559 38.078 11.199 53.762 8.3984 21.281-3.9219 40.32-13.441 57.121-26.879-2.2383 30.238-6.7188 61.039-11.762 90.719h-411.6zm66.641-135.52c3.9219-3.3594 7.2812-7.2812 10.641-11.199 10.641 3.3594 20.719 6.1602 31.359 9.5195 3.3594 1.1211 5.0391-4.4805 1.6797-5.6016-9.5195-2.8008-19.039-5.6016-28.559-8.9609 2.8008-3.9219 6.1602-7.2812 8.9609-11.199 8.9609 5.6016 18.48 10.641 28 15.121 3.3594 1.6797 6.1602-3.3594 2.8008-5.0391-9.5195-4.4805-18.48-8.9609-27.441-14.559 1.6797-2.8008 3.9219-5.6016 5.6016-8.9609 33.602 22.961 68.32 44.801 103.6 64.961 0.55859 0 0.55859 0.55859 1.1211 0.55859 0.55859 1.6797 1.1211 3.3594 1.6797 5.0391-8.9609-5.0391-17.359-9.5195-26.879-12.879-3.3594-1.1211-5.0391 4.4805-1.6797 5.6016 9.5195 3.3594 18.48 8.3984 27.441 13.441 1.1211 0.55859 1.6797 0.55859 2.2383 0 0.55859 2.2383 1.1211 4.4805 1.6797 6.7188-10.078-5.0391-20.16-10.641-30.801-15.68-3.3594-1.6797-6.1602 3.3594-2.8008 5.0391 10.641 5.6016 21.281 11.199 32.48 16.801 0.55859 0.55859 1.6797 0.55859 2.2383 0 0.55859 4.4805 1.6797 8.9609 1.6797 12.879-43.684-30.238-92.402-50.961-145.04-61.602zm150.64 58.801c-0.55859-3.3594-1.1211-7.2812-1.6797-10.641l0.55859-0.55859c5.6016-11.199 16.238-19.039 28.559-20.719 3.3594-0.55859 2.2383-6.1602-1.6797-5.6016-12.32 2.2383-22.398 8.9609-29.121 19.039-0.55859-2.2383-1.1211-3.9219-1.6797-6.1602 0.55859 0 0.55859-0.55859 0.55859-1.1211 4.4805-10.641 13.441-15.68 23.52-19.602 3.3594-1.1211 1.6797-6.7188-1.6797-5.6016-10.641 3.9219-19.039 8.9609-24.641 18.48-0.55859-1.1211-0.55859-2.2383-1.1211-2.8008 12.879-22.398 39.199-30.801 62.719-38.078 24.641-7.8398 49.84-13.441 75.039-17.359 0.55859 1.1211 0.55859 1.6797 1.1211 2.8008-14 0.55859-27.441 4.4805-40.879 10.078-3.3594 1.6797-0.55859 6.1602 2.8008 5.0391 12.879-6.1602 26.32-8.9609 40.32-9.5195 0.55859 1.1211 1.1211 2.2383 1.6797 3.3594-14 0.55859-26.879 5.0391-39.762 9.5195-3.3594 1.1211-1.6797 6.7188 1.6797 5.6016 13.441-5.0391 26.32-9.5195 40.32-9.5195 1.1211 3.3594 2.8008 6.1602 3.9219 9.5195-48.156 11.203-109.2 25.203-140.55 63.844z"/>
  <use x="70" y="644" xlink:href="#j"/>
  <use x="90.550781" y="644" xlink:href="#c"/>
  <use x="104.359375" y="644" xlink:href="#a"/>
  <use x="123.347656" y="644" xlink:href="#f"/>
  <use x="142.242188" y="644" xlink:href="#b"/>
  <use x="155.628906" y="644" xlink:href="#a"/>
  <use x="174.617188" y="644" xlink:href="#m"/>
  <use x="204.410156" y="644" xlink:href="#l"/>
  <use x="224.453125" y="644" xlink:href="#k"/>
  <use x="252.453125" y="644" xlink:href="#e"/>
  <use x="275.433594" y="644" xlink:href="#f"/>
  <use x="294.328125" y="644" xlink:href="#i"/>
  <use x="323.503906" y="644" xlink:href="#w"/>
  <use x="339.800781" y="644" xlink:href="#a"/>
  <use x="368.539062" y="644" xlink:href="#e"/>
  <use x="391.523438" y="644" xlink:href="#a"/>
  <use x="410.511719" y="644" xlink:href="#h"/>
  <use x="430.445312" y="644" xlink:href="#g"/>
  <use x="456.789062" y="644" xlink:href="#j"/>
  <use x="477.339844" y="644" xlink:href="#a"/>
  <use x="496.328125" y="644" xlink:href="#v"/>
  <use x="505.929687" y="644" xlink:href="#u"/>
  <use x="515.523437" y="644" xlink:href="#t"/>
  <use x="70" y="672" xlink:href="#s"/>
  <use x="82.183594" y="672" xlink:href="#c"/>
  <use x="95.992188" y="672" xlink:href="#d"/>
  <use x="115.226562" y="672" xlink:href="#i"/>
  <use x="154.152344" y="672" xlink:href="#b"/>
  <use x="167.535156" y="672" xlink:href="#r"/>
  <use x="187.46875" y="672" xlink:href="#a"/>
  <use x="216.207031" y="672" xlink:href="#q"/>
  <use x="239.640625" y="672" xlink:href="#d"/>
  <use x="258.878906" y="672" xlink:href="#p"/>
  <use x="278.8125" y="672" xlink:href="#h"/>
  <use x="308.492188" y="672" xlink:href="#o"/>
  <use x="329.015625" y="672" xlink:href="#c"/>
  <use x="342.820312" y="672" xlink:href="#d"/>
  <use x="362.058594" y="672" xlink:href="#n"/>
  <use x="371.65625" y="672" xlink:href="#a"/>
  <use x="390.648438" y="672" xlink:href="#g"/>
  <use x="407.242188" y="672" xlink:href="#b"/>
 </g>
</svg>
